# xmcd
# 
# Track frame offsets:
#     150
#     14544
#     28077
#     41087
#     54496
#     70568
# 
# Disc length: 1125
# 
# Revision: 0
# Processed by: cddbd v1.5.2PL0 Copyright (c) Steve Scherf et al.
# Submitted via: fre:ac v1.0.17
# 
DISCID=49046306
DTITLE=Due West - Our Time
DYEAR=2013
DGENRE=Country
TTITLE0=Things You Can't Do In A Car
TTITLE1=Taste of Your Love
TTITLE2=Our Time
TTITLE3=End of the Road
TTITLE4=Little Yellow Note
TTITLE5=Stick On You
EXTD=
EXTT0=
EXTT1=
EXTT2=
EXTT3=
EXTT4=
EXTT5=
PLAYORDER=
